<svg xmlns="http://www.w3.org/2000/svg" width="16.313" height="13.955" viewBox="0 0 16.313 13.955">
    <path id="Path_61" data-name="Path 61" d="M1066.826,68.4a5.756,5.756,0,0,1-3.669,2.339,6.556,6.556,0,0,1-1.214.111q-.74.007-1.48.008a.49.49,0,0,1-.491-.49V67.208a.49.49,0,0,1,.49-.49h1.52a1.807,1.807,0,0,0,1.239-.445,1.76,1.76,0,0,0,.3-2.315,1.7,1.7,0,0,0-1.481-.778c-1.727,0-3.453,0-5.18,0-.032,0-.062.007-.113.013v.188c0,.635,0,1.272,0,1.907a.571.571,0,0,1-.366.578.6.6,0,0,1-.672-.146c-.019-.018-.038-.037-.057-.056l-3.8-3.814a.586.586,0,0,1,0-.895l3.818-3.823a.606.606,0,0,1,1.079.45c-.006.424,0,.847,0,1.271v.194h5.078a6.384,6.384,0,0,1,1.866.236,5.918,5.918,0,0,1,2.681,1.653,5.881,5.881,0,0,1,.458,7.46Z" fill="#DEC554" transform="translate(-1051.638 -56.898)"/>
</svg>